<?xml version="1.0" encoding="utf-8"?>
<!-- Generator: Adobe Illustrator 24.0.1, SVG Export Plug-In . SVG Version: 6.00 Build 0)  -->
<svg version="1.1" id="Icon_x5F_contour" xmlns="http://www.w3.org/2000/svg" xmlns:xlink="http://www.w3.org/1999/xlink" x="0px"
	 y="0px" viewBox="0 0 192 192" style="enable-background:new 0 0 192 192;" xml:space="preserve">
<path d="M170.82959,82.17041c-5.97168-5.9707-15.6875-5.9707-21.65918,0l0.00098,0.00098l-44.66748,44.66797l-10.82861,32.48535
	l32.48535-10.82861l44.66797-44.66748l0.00098,0.00098C176.80078,97.85791,176.80078,88.14209,170.82959,82.17041z
	 M109.74799,136.40521l6.8468,6.8468l-10.27008,3.42328L109.74799,136.40521z M165.17139,98.17139l-41.17114,41.17163
	l-10.34326-10.34326l41.17163-41.17114l-0.00098-0.00098c2.85156-2.85254,7.49316-2.85254,10.34473,0
	c2.85254,2.85205,2.85254,7.49268,0,10.34473L165.17139,98.17139z M120,80H56v-8h64V80z M120,100H56v-8h64V100z M56,112h40v8H56V112
	z M144,141.97058V168H48V24h68v32h28v20.05029c2.33649-2.20795,5.05133-3.88245,8-4.95526V50.49707L121.81494,16H40v160h112
	v-42.0293L144,141.97058z M124,30.64569L139.18494,48H124V30.64569z"/>
<g>
</g>
<g>
</g>
<g>
</g>
<g>
</g>
<g>
</g>
<g>
</g>
<g>
</g>
<g>
</g>
<g>
</g>
<g>
</g>
<g>
</g>
<g>
</g>
<g>
</g>
<g>
</g>
<g>
</g>
</svg>
