<svg width="189" height="31" viewBox="0 0 189 31" fill="none" xmlns="http://www.w3.org/2000/svg">
<path d="M19.8182 10.3125C19.6193 9.62121 19.34 9.01042 18.9801 8.48011C18.6203 7.94034 18.1799 7.4858 17.6591 7.11648C17.1477 6.73769 16.5606 6.44886 15.8977 6.25C15.2443 6.05114 14.5199 5.9517 13.7244 5.9517C12.2377 5.9517 10.9309 6.32102 9.80398 7.05966C8.68655 7.79829 7.81534 8.87311 7.19034 10.2841C6.56534 11.6856 6.25284 13.3996 6.25284 15.4261C6.25284 17.4527 6.56061 19.1761 7.17614 20.5966C7.79167 22.017 8.66288 23.1013 9.78977 23.8494C10.9167 24.5881 12.2472 24.9574 13.7812 24.9574C15.1733 24.9574 16.3617 24.7112 17.3466 24.2188C18.3409 23.7169 19.0985 23.0114 19.6193 22.1023C20.1496 21.1932 20.4148 20.1184 20.4148 18.8778L21.6648 19.0625H14.1648V14.4318H26.3381V18.0966C26.3381 20.6534 25.7983 22.8504 24.7188 24.6875C23.6392 26.5152 22.1525 27.9261 20.2585 28.9205C18.3646 29.9053 16.196 30.3977 13.7528 30.3977C11.0256 30.3977 8.62974 29.7964 6.56534 28.5938C4.50095 27.3816 2.8911 25.6629 1.7358 23.4375C0.589962 21.2027 0.0170455 18.5511 0.0170455 15.483C0.0170455 13.125 0.357955 11.0227 1.03977 9.17614C1.73106 7.32008 2.69697 5.74811 3.9375 4.46023C5.17803 3.17235 6.62216 2.19223 8.26989 1.51989C9.91761 0.847537 11.7027 0.511363 13.625 0.511363C15.2727 0.511363 16.8068 0.75284 18.2273 1.2358C19.6477 1.70928 20.9072 2.38163 22.0057 3.25284C23.1136 4.12405 24.018 5.16098 24.7188 6.36364C25.4195 7.55682 25.8693 8.87311 26.0682 10.3125H19.8182Z" fill="#5EBD82"/>
<path d="M30.9581 30V0.90909H42.4354C44.6323 0.90909 46.5073 1.30208 48.0604 2.08807C49.6229 2.86458 50.8113 3.9678 51.6257 5.39773C52.4496 6.81818 52.8615 8.48958 52.8615 10.4119C52.8615 12.3437 52.4448 14.0057 51.6115 15.3977C50.7782 16.7803 49.5708 17.8409 47.9893 18.5795C46.4174 19.3182 44.514 19.6875 42.2791 19.6875H34.5945V14.7443H41.2848C42.459 14.7443 43.4344 14.5833 44.2109 14.2614C44.9875 13.9394 45.5651 13.4564 45.9439 12.8125C46.3321 12.1686 46.5263 11.3684 46.5263 10.4119C46.5263 9.44602 46.3321 8.63163 45.9439 7.96875C45.5651 7.30587 44.9827 6.80398 44.1967 6.46307C43.4202 6.11269 42.4401 5.9375 41.2564 5.9375H37.1087V30H30.9581ZM46.6683 16.7614L53.8984 30H47.1087L40.0348 16.7614H46.6683Z" fill="#37A264"/>
<path d="M57.2081 30V0.90909H76.8104V5.98011H63.3587V12.9119H75.8018V17.983H63.3587V24.929H76.8672V30H57.2081Z" fill="#00884A"/>
<path d="M81.7003 30V0.90909H101.303V5.98011H87.8509V12.9119H100.294V17.983H87.8509V24.929H101.359V30H81.7003Z" fill="#006C3A"/>
<path d="M130.525 0.90909V30H125.212L112.556 11.6903H112.343V30H106.192V0.90909H111.59L124.147 19.2045H124.403V0.90909H130.525Z" fill="#00512A"/>
<path d="M135.607 30V0.90909H147.254C149.394 0.90909 151.179 1.22633 152.609 1.8608C154.039 2.49527 155.114 3.37595 155.834 4.50284C156.554 5.62027 156.913 6.90814 156.913 8.36648C156.913 9.50284 156.686 10.5019 156.232 11.3636C155.777 12.2159 155.152 12.9167 154.357 13.4659C153.571 14.0057 152.671 14.3892 151.658 14.6165V14.9006C152.766 14.9479 153.803 15.2604 154.768 15.8381C155.744 16.4157 156.535 17.2254 157.141 18.267C157.747 19.2992 158.05 20.5303 158.05 21.9602C158.05 23.5038 157.666 24.8816 156.899 26.0938C156.142 27.2964 155.019 28.2481 153.533 28.9489C152.046 29.6496 150.214 30 148.036 30H135.607ZM141.757 24.9716H146.771C148.485 24.9716 149.735 24.6449 150.521 23.9915C151.307 23.3286 151.7 22.4479 151.7 21.3494C151.7 20.5445 151.506 19.8343 151.118 19.2188C150.73 18.6032 150.176 18.1203 149.456 17.7699C148.746 17.4195 147.898 17.2443 146.913 17.2443H141.757V24.9716ZM141.757 13.0824H146.317C147.16 13.0824 147.908 12.9356 148.561 12.642C149.224 12.339 149.745 11.9129 150.124 11.3636C150.512 10.8144 150.706 10.1562 150.706 9.3892C150.706 8.33807 150.332 7.49053 149.584 6.84659C148.845 6.20265 147.794 5.88068 146.43 5.88068H141.757V13.0824Z" fill="#004975"/>
<path d="M188.785 15.4545C188.785 18.6269 188.183 21.3258 186.981 23.5511C185.788 25.7765 184.159 27.4763 182.094 28.6506C180.04 29.8153 177.729 30.3977 175.163 30.3977C172.577 30.3977 170.257 29.8106 168.202 28.6364C166.147 27.4621 164.523 25.7623 163.33 23.5369C162.137 21.3116 161.54 18.6174 161.54 15.4545C161.54 12.2822 162.137 9.58333 163.33 7.35795C164.523 5.13258 166.147 3.4375 168.202 2.27273C170.257 1.09848 172.577 0.511363 175.163 0.511363C177.729 0.511363 180.04 1.09848 182.094 2.27273C184.159 3.4375 185.788 5.13258 186.981 7.35795C188.183 9.58333 188.785 12.2822 188.785 15.4545ZM182.549 15.4545C182.549 13.3996 182.241 11.6667 181.626 10.2557C181.02 8.8447 180.163 7.77462 179.055 7.04545C177.947 6.31629 176.649 5.9517 175.163 5.9517C173.676 5.9517 172.379 6.31629 171.271 7.04545C170.163 7.77462 169.301 8.8447 168.685 10.2557C168.079 11.6667 167.776 13.3996 167.776 15.4545C167.776 17.5095 168.079 19.2424 168.685 20.6534C169.301 22.0644 170.163 23.1345 171.271 23.8636C172.379 24.5928 173.676 24.9574 175.163 24.9574C176.649 24.9574 177.947 24.5928 179.055 23.8636C180.163 23.1345 181.02 22.0644 181.626 20.6534C182.241 19.2424 182.549 17.5095 182.549 15.4545Z" fill="#003253"/>
</svg>
