<svg width="400" height="400" viewBox="0 0 400 400" fill="none" xmlns="http://www.w3.org/2000/svg">
<g clip-path="url(#clip0_880_26)">
<path d="M240.397 181.477L239.805 178.217L236.693 160.881C241.138 154.213 246.916 144.731 250.176 135.692C251.33 132.583 252.126 129.351 252.547 126.061C252.547 125.469 252.695 124.876 252.695 124.431C252.695 121.024 251.955 117.912 249.88 115.69C245.584 110.948 240.694 112.726 236.249 117.023C228.396 124.431 221.876 139.1 221.876 139.1L229.581 166.214C229.729 166.807 229.729 167.548 229.878 168.14C230.149 170.154 230.199 172.191 230.026 174.215C229.285 183.254 224.396 193.033 215.653 198.07C203.652 204.886 198.17 205.627 190.168 210.665C186.316 213.184 181.427 217.925 177.722 221.777C175.5 241.483 173.277 258.671 173.277 258.671H248.917L240.545 181.92L240.397 181.476V181.477Z" fill="#A4ABB3"/>
<path d="M239.805 177.773L250.176 135.248C246.916 144.138 241.138 153.769 236.693 160.437L239.805 177.773Z" fill="#E0E2E5"/>
<path d="M143.129 66.0016C143.087 65.9811 143.17 66.0225 143.129 66.0016C142.537 68.1964 136.383 94.6591 135.938 97.1461C136.087 109.728 137.123 122.457 139.347 134.892C140.383 140.744 141.568 146.743 143.348 152.888L144.236 155.96L152.399 176.8C162.03 164.657 172.916 165.663 180.917 167.564L182.9 167.969C188.407 169.376 193.43 172.247 197.437 176.278L202.465 160.093C202.465 160.093 204.005 159.657 210.525 157.169C217.044 154.536 221.346 122.633 224.013 108.442C226.829 92.7873 226.151 89.2764 226.151 89.2764C226.151 89.2764 226.064 89.2408 225.932 89.1888L236.693 78.465L250.177 70.8951L253.547 64.424C249.765 38.2483 166.366 11.9256 143.129 66.0016Z" fill="#A4ABB3"/>
<path d="M160.877 119.93C152.385 118.426 141.581 121.665 140.864 122.827L139.87 118.883C141.836 115.919 145.349 112.44 148.782 111.937C152.215 111.434 160.918 112.132 167.902 114.359L167.706 115.318C167.395 116.826 166.507 118.153 165.231 119.015C163.954 119.876 162.392 120.205 160.877 119.93Z" fill="#C1C7CC"/>
<path d="M191.399 120.43C199.786 118.421 210.765 121.008 211.549 122.126L212.306 118.129C210.166 115.288 206.451 112.025 202.994 111.728C199.537 111.432 190.892 112.649 184.054 115.289L184.306 116.235C184.707 117.722 185.673 118.993 186.999 119.777C188.324 120.56 189.903 120.795 191.399 120.43Z" fill="#C1C7CC"/>
<path d="M236.693 160.881C241.138 154.213 246.916 144.731 250.176 135.692C251.33 132.583 252.125 129.351 252.547 126.061C252.547 125.469 252.695 124.876 252.695 124.431C252.695 121.024 251.954 117.912 249.88 115.69C245.584 110.948 240.694 112.726 236.249 117.023C228.396 124.431 221.876 139.1 221.876 139.1L229.581 166.214C229.729 166.807 236.693 160.881 236.693 160.881Z" fill="#A4ABB3"/>
<path d="M61.7213 354.878C61.749 355.328 61.7633 355.777 61.7992 356.227L61.938 358.093V350.887L64.9264 399.89H166.226L165.411 273.472C165.411 273.472 164.051 229.753 164.326 218.064L108.95 239.326C96.4819 249.054 81.7319 271.287 73.8673 285.006C65.0824 300.679 60.6608 337.572 61.7213 354.863L61.7213 354.878Z" fill="#5EBD82"/>
<path d="M243.841 239.327H171.798L171.66 239.404L146.556 253.474L135.585 355.66C135.585 355.66 238.865 393.054 246.733 333.778C253.648 281.471 261.53 249.18 261.532 249.173L243.917 239.326L243.841 239.327Z" fill="#E0E2E5"/>
<path fill-rule="evenodd" clip-rule="evenodd" d="M190.973 233.467L214.135 250.25L197.353 271.886L206.923 293.384L204.306 399.913L161.245 400L170.029 293.384L183.066 271.886L171 252.608L190.973 233.467Z" fill="#101112"/>
<path d="M74.4526 399.89L71.5924 353.565C70.4417 339.76 69.0365 326.142 69.089 313.368C69.0737 307.737 69.4535 302.112 70.2257 296.534C70.6248 293.798 71.166 291.084 71.8472 288.405L31.5525 399.89H74.4526Z" fill="#86D7A2"/>
<path fill-rule="evenodd" clip-rule="evenodd" d="M223.705 264.396C223.705 264.396 199.294 245.95 190.972 233.606C190.418 232.773 209.142 231.386 223.427 221.816C239.238 211.275 243.107 205.728 243.107 205.728L257.962 225.977C257.962 225.977 233.275 252.745 223.704 264.396" fill="white"/>
<path fill-rule="evenodd" clip-rule="evenodd" d="M176.548 212.385C176.409 225.007 190.972 233.467 190.972 233.467L165.868 264.258C165.868 264.258 160.043 246.921 160.043 235.41C160.043 223.898 176.547 212.386 176.547 212.386" fill="white"/>
<path d="M306.434 399.89C303.646 387.239 301.087 374.751 298.918 362.852C298.485 360.379 298.155 357.89 297.928 355.387C295.432 329.437 306.775 274.687 336.36 260.211L256.528 214.204C253.776 223.869 206.644 323.899 206.644 323.899L181 399.89H224.908H306.434Z" fill="#5EBD82"/>
<path d="M172.008 210.829L172.637 210.27C172.396 210.418 172.183 210.607 172.008 210.829Z" fill="#595E62"/>
<path d="M172.008 210.829L166.114 216.08C164.416 215.425 108.969 284.267 108.969 284.267L136.342 283.72L99.9565 302.297C97.3758 319.976 121.787 365.446 141.545 399.89H171.242C173.654 381.305 176.191 359.097 177.579 338.909C170.72 317.535 166.651 217.279 172.008 210.829Z" fill="#00512A"/>
<path d="M239.534 284.106L236.376 282.868L239.534 283.574L279.684 291.376C279.684 291.376 274.516 225.196 274.598 224.618C274.598 224.618 254.805 207.418 243.107 205.728C243.061 219.003 177.58 338.909 177.58 338.909L166.118 399.87L224.908 399.89L274.598 325.659C274.598 325.659 249.664 287.811 239.534 284.106Z" fill="#00512A"/>
<path d="M288.63 399.89H389.613L373.027 303.918C363.734 271.765 344.3 257.023 320.24 258.598C281.627 264.607 277.991 317.418 280.182 340.724C281.973 359.779 285 380.082 288.63 399.89Z" fill="#5EBD82"/>
<path d="M136.052 96.3507C136.499 93.8185 142.533 68.2355 143.128 66.0017C140.006 68.4919 118.425 87.6454 139.477 134.771C137.243 122.113 136.201 109.306 136.052 96.3507Z" fill="#E0E2E5"/>
<path d="M253.547 62.9934V62.9927C232.388 66.0017 225.403 88.6073 225.403 88.6073C225.403 88.6073 226.297 92.6284 223.318 108.562C220.638 123.007 216.319 153.237 209.767 155.917C203.214 158.597 201.874 159.789 201.874 159.789L197.258 175.425C193.175 171.242 188.025 168.256 182.366 166.789C174.325 164.853 163.156 163.661 153.178 175.873L144.236 155.695C144.236 155.695 130.845 191.484 131.945 212.75C132.978 232.724 148.648 251.011 181.136 256.795C173.968 240.084 222.149 243.057 232.729 215.232C236.673 204.858 235.636 188.546 233.861 182.069L222.125 139.239C222.125 139.239 228.677 124.347 236.421 116.902C240.889 112.583 245.721 111.167 249.881 115.69C251.966 117.923 252.647 121.532 252.647 124.956C253.094 123.765 253.845 121.816 254.292 120.326C259.355 104.69 264.567 69.0992 253.547 62.9934Z" fill="#E0E2E5"/>
</g>
<defs>
<clipPath id="clip0_880_26">
<rect width="400" height="400" fill="white"/>
</clipPath>
</defs>
</svg>
