<?xml version="1.0" encoding="UTF-8"?>
<svg xmlns="http://www.w3.org/2000/svg" viewBox="0 0 192 192"><path d="M104 80v4c0 2.79-1.21 4-4 4h-4c-2.79 0-4-1.21-4-4v-4c0-2.79 1.21-4 4-4h4c2.79 0 4 1.21 4 4zm-56-3.937L44 76c-2.79 0-4 1.211-4 4.001V84c0 2.79 1.21 4.002 4 4.002h4c2.79 0 4-2.262 4-5.052V80c0-2.789-1.21-3.937-4-3.937zM152 144a4 4 0 0 0-4-4h-8a4 4 0 0 0 0 8h8a4 4 0 0 0 4-4zm-47.802 0a4 4 0 0 0-4-4h-8a4 4 0 0 0 0 8h8a4 4 0 0 0 4-4zM176 128a4 4 0 0 1-4 4h-5.941c2.736 2.788 5.941 7.095 5.941 12v16c0 10.168-2.916 16-8 16h-12c-1.701-.006-6.835-.959-7.832-12H95.832c-.997 11.041-6.13 11.994-7.818 12H76c-5.084 0-8-5.832-8-16v-16c0-4.905 3.205-9.212 5.941-12H68a4 4 0 0 1 0-8h11.528l.872-1.744c.419-.89 5.173-10.898 9.913-16.712 7.013-9.41 27.386-9.579 29.711-9.544 2.247-.009 22.65.135 29.663 9.544 4.74 5.814 9.494 15.821 9.913 16.712l.872 1.744H172a4 4 0 0 1 4 4zm-12 16c0-3.138-4.273-7.255-6.342-8.757l-.79-.575-4.49-8.972c-.047-.1-4.702-9.993-8.941-15.158l-.139-.178c-3.573-4.89-17.24-6.383-23.274-6.36-7.238-.058-19.889 1.662-23.322 6.36l-.139.178c-4.24 5.165-8.894 15.058-8.94 15.158l-.045.093-4.442 8.883-.802.576C80.273 136.745 76 140.862 76 144v16c0 4.205.631 6.862 1.112 8h9.719c.41-.798 1.169-2.958 1.169-8v-4h64v4c0 5.042.76 7.202 1.17 8h9.718c.48-1.138 1.112-3.795 1.112-8v-16zm-36-98.665v5.335c0 2.947-2.686 5.335-6 5.335h-1.999V88H120c-.66.006-3.819.021-8 .449V62.283c-1.903.35-4.081.59-6.494.768C92.827 63.988 72.844 64 72 64s-20.827-.01-33.506-.948c-2.412-.178-4.59-.419-6.495-.768L32.001 100c0 6.575 1.024 10.377 1.683 11.994 2.012-.007 5.148-.001 7.628.003l1.437.001c.453-1.186 1.25-4.361 1.25-11.999v-4l44.716.002c-1.834 1.363-3.406 2.898-4.71 4.62a52.562 52.562 0 0 0-2.487 3.38l-29.588-.002c-.311 8.121-1.843 15.999-7.93 16l-2.7-.002c-3.244-.005-8.146-.013-9.218.009-.938.031-2.318-.232-3.644-1.533C25.658 115.75 24 108.843 24 100l-.002-43.708v-.286h-2c-3.313 0-6-2.389-6-5.335v-5.335C16 42.388 18.686 40 22 40h5.46l3.244-14.603C31.933 19.864 36.75 16 42.417 16h59.166c5.667 0 10.484 3.864 11.714 9.397l3.245 14.604H122c3.314 0 6 2.388 6 5.334zm-16.495 8.878l-6.018-27.08A3.976 3.976 0 0 0 101.583 24H42.417a3.976 3.976 0 0 0-3.904 3.132l-6.018 27.08c1.337.294 3.46.63 6.59.86C51.464 55.989 71.794 56 72 56s20.534-.01 32.916-.926c3.128-.232 5.252-.567 6.589-.86z" style="fill: #007bc0;"/></svg>
